<svg xmlns="http://www.w3.org/2000/svg" viewBox="0 0 800 450" role="img" aria-label="Vinoteca Online">
  <defs>
    <linearGradient id="bg" x1="0%" y1="0%" x2="100%" y2="100%">
      <stop offset="0%" stop-color="#292524"/>
      <stop offset="50%" stop-color="#1c1917"/>
      <stop offset="100%" stop-color="#0a0a0a"/>
    </linearGradient>
    <linearGradient id="wine" x1="0%" y1="100%" x2="0%" y2="0%">
      <stop offset="0%" stop-color="#7f1d1d"/>
      <stop offset="100%" stop-color="#fbbf24"/>
    </linearGradient>
  </defs>
  <rect width="800" height="450" fill="url(#bg)"/>
  <g opacity="0.08" stroke="#fbbf24" stroke-width="1">
    <path d="M0 80h800M0 160h800M0 240h800M0 320h800"/>
    <path d="M100 0v450M200 0v450M300 0v450M400 0v450M500 0v450M600 0v450M700 0v450"/>
  </g>
  <ellipse cx="280" cy="320" rx="55" ry="18" fill="#78350f" opacity="0.5"/>
  <path d="M240 320 V180 Q280 140 320 180 V320 Z" fill="url(#wine)"/>
  <rect x="238" y="175" width="84" height="12" rx="4" fill="#44403c"/>
  <ellipse cx="520" cy="300" rx="120" ry="70" fill="#fbbf24" opacity="0.06"/>
  <text x="48" y="72" fill="#fbbf24" font-family="ui-monospace, monospace" font-size="13" letter-spacing="0.2em">VINOTECA</text>
  <text x="48" y="110" fill="#fafaf9" font-family="system-ui, sans-serif" font-size="32" font-weight="700">Cat·logo &amp; e-commerce</text>
  <text x="48" y="145" fill="#a8a29e" font-family="ui-monospace, monospace" font-size="14">Next.js ∑ Prisma ∑ PostgreSQL</text>
</svg>
